<svg xmlns="http://www.w3.org/2000/svg" version="1.1" xmlns:xlink="http://www.w3.org/1999/xlink" xmlns:svgjs="http://svgjs.dev/svgjs" width="1440" height="560" preserveAspectRatio="none" viewBox="0 0 1440 560"><g mask="url(&quot;#SvgjsMask1002&quot;)" fill="none"><path d="M80.69 71.05L147.37 109.55L147.37 186.55L80.69 225.05L14 186.55L14 109.55zM14 417.55L80.69 456.05L80.69 533.05L14 571.55L-52.69 533.05L-52.69 456.05zM80.69 533.05L147.37 571.55L147.37 648.55L80.69 687.05L14 648.55L14 571.55zM214.06 302.05L280.74 340.55L280.74 417.55L214.06 456.05L147.37 417.55L147.37 340.55zM347.43 302.05L414.12 340.55L414.12 417.55L347.43 456.05L280.74 417.55L280.74 340.55zM347.43 533.05L414.12 571.55L414.12 648.55L347.43 687.05L280.74 648.55L280.74 571.55zM414.12 186.55L480.8 225.05L480.8 302.05L414.12 340.55L347.43 302.05L347.43 225.05zM414.12 417.55L480.8 456.05L480.8 533.05L414.12 571.55L347.43 533.05L347.43 456.05zM480.8 533.05L547.49 571.55L547.49 648.55L480.8 687.05L414.12 648.55L414.12 571.55zM547.49 186.55L614.17 225.05L614.17 302.05L547.49 340.55L480.8 302.05L480.8 225.05zM747.54 302.05L814.23 340.55L814.23 417.55L747.54 456.05L680.86 417.55L680.86 340.55zM814.23 -44.45L880.92 -5.95L880.92 71.05L814.23 109.55L747.54 71.05L747.54 -5.95zM880.92 71.05L947.6 109.55L947.6 186.55L880.92 225.05L814.23 186.55L814.23 109.55zM1014.29 71.05L1080.97 109.55L1080.97 186.55L1014.29 225.05L947.6 186.55L947.6 109.55zM1014.29 533.05L1080.97 571.55L1080.97 648.55L1014.29 687.05L947.6 648.55L947.6 571.55zM1080.97 -44.45L1147.66 -5.95L1147.66 71.05L1080.97 109.55L1014.29 71.05L1014.29 -5.95zM1147.66 71.05L1214.35 109.55L1214.35 186.55L1147.66 225.05L1080.97 186.55L1080.97 109.55zM1080.97 186.55L1147.66 225.05L1147.66 302.05L1080.97 340.55L1014.29 302.05L1014.29 225.05zM1214.35 -44.45L1281.03 -5.95L1281.03 71.05L1214.35 109.55L1147.66 71.05L1147.66 -5.95zM1281.03 71.05L1347.72 109.55L1347.72 186.55L1281.03 225.05L1214.35 186.55L1214.35 109.55zM1281.03 302.05L1347.72 340.55L1347.72 417.55L1281.03 456.05L1214.35 417.55L1214.35 340.55zM1347.72 -44.45L1414.4 -5.95L1414.4 71.05L1347.72 109.55L1281.03 71.05L1281.03 -5.95zM1414.4 71.05L1481.09 109.55L1481.09 186.55L1414.4 225.05L1347.72 186.55L1347.72 109.55zM1347.72 186.55L1414.4 225.05L1414.4 302.05L1347.72 340.55L1281.03 302.05L1281.03 225.05zM1414.4 302.05L1481.09 340.55L1481.09 417.55L1414.4 456.05L1347.72 417.55L1347.72 340.55zM1414.4 533.05L1481.09 571.55L1481.09 648.55L1414.4 687.05L1347.72 648.55L1347.72 571.55z" stroke="rgba(239, 149, 8, 1)" stroke-width="2"></path><path d="M72.99 71.05 a7.7 7.7 0 1 0 15.4 0 a7.7 7.7 0 1 0 -15.4 0zM139.67 109.55 a7.7 7.7 0 1 0 15.4 0 a7.7 7.7 0 1 0 -15.4 0zM139.67 186.55 a7.7 7.7 0 1 0 15.4 0 a7.7 7.7 0 1 0 -15.4 0zM72.99 225.05 a7.7 7.7 0 1 0 15.4 0 a7.7 7.7 0 1 0 -15.4 0zM6.3 186.55 a7.7 7.7 0 1 0 15.4 0 a7.7 7.7 0 1 0 -15.4 0zM6.3 109.55 a7.7 7.7 0 1 0 15.4 0 a7.7 7.7 0 1 0 -15.4 0zM6.3 417.55 a7.7 7.7 0 1 0 15.4 0 a7.7 7.7 0 1 0 -15.4 0zM72.99 456.05 a7.7 7.7 0 1 0 15.4 0 a7.7 7.7 0 1 0 -15.4 0zM72.99 533.05 a7.7 7.7 0 1 0 15.4 0 a7.7 7.7 0 1 0 -15.4 0zM6.3 571.55 a7.7 7.7 0 1 0 15.4 0 a7.7 7.7 0 1 0 -15.4 0zM-60.39 533.05 a7.7 7.7 0 1 0 15.4 0 a7.7 7.7 0 1 0 -15.4 0zM-60.39 456.05 a7.7 7.7 0 1 0 15.4 0 a7.7 7.7 0 1 0 -15.4 0zM139.67 571.55 a7.7 7.7 0 1 0 15.4 0 a7.7 7.7 0 1 0 -15.4 0zM139.67 648.55 a7.7 7.7 0 1 0 15.4 0 a7.7 7.7 0 1 0 -15.4 0zM72.99 687.05 a7.7 7.7 0 1 0 15.4 0 a7.7 7.7 0 1 0 -15.4 0zM6.3 648.55 a7.7 7.7 0 1 0 15.4 0 a7.7 7.7 0 1 0 -15.4 0zM206.36 302.05 a7.7 7.7 0 1 0 15.4 0 a7.7 7.7 0 1 0 -15.4 0zM273.04 340.55 a7.7 7.7 0 1 0 15.4 0 a7.7 7.7 0 1 0 -15.4 0zM273.04 417.55 a7.7 7.7 0 1 0 15.4 0 a7.7 7.7 0 1 0 -15.4 0zM206.36 456.05 a7.7 7.7 0 1 0 15.4 0 a7.7 7.7 0 1 0 -15.4 0zM139.67 417.55 a7.7 7.7 0 1 0 15.4 0 a7.7 7.7 0 1 0 -15.4 0zM139.67 340.55 a7.7 7.7 0 1 0 15.4 0 a7.7 7.7 0 1 0 -15.4 0zM339.73 302.05 a7.7 7.7 0 1 0 15.4 0 a7.7 7.7 0 1 0 -15.4 0zM406.42 340.55 a7.7 7.7 0 1 0 15.4 0 a7.7 7.7 0 1 0 -15.4 0zM406.42 417.55 a7.7 7.7 0 1 0 15.4 0 a7.7 7.7 0 1 0 -15.4 0zM339.73 456.05 a7.7 7.7 0 1 0 15.4 0 a7.7 7.7 0 1 0 -15.4 0zM339.73 533.05 a7.7 7.7 0 1 0 15.4 0 a7.7 7.7 0 1 0 -15.4 0zM406.42 571.55 a7.7 7.7 0 1 0 15.4 0 a7.7 7.7 0 1 0 -15.4 0zM406.42 648.55 a7.7 7.7 0 1 0 15.4 0 a7.7 7.7 0 1 0 -15.4 0zM339.73 687.05 a7.7 7.7 0 1 0 15.4 0 a7.7 7.7 0 1 0 -15.4 0zM273.04 648.55 a7.7 7.7 0 1 0 15.4 0 a7.7 7.7 0 1 0 -15.4 0zM273.04 571.55 a7.7 7.7 0 1 0 15.4 0 a7.7 7.7 0 1 0 -15.4 0zM406.42 186.55 a7.7 7.7 0 1 0 15.4 0 a7.7 7.7 0 1 0 -15.4 0zM473.1 225.05 a7.7 7.7 0 1 0 15.4 0 a7.7 7.7 0 1 0 -15.4 0zM473.1 302.05 a7.7 7.7 0 1 0 15.4 0 a7.7 7.7 0 1 0 -15.4 0zM339.73 225.05 a7.7 7.7 0 1 0 15.4 0 a7.7 7.7 0 1 0 -15.4 0zM473.1 456.05 a7.7 7.7 0 1 0 15.4 0 a7.7 7.7 0 1 0 -15.4 0zM473.1 533.05 a7.7 7.7 0 1 0 15.4 0 a7.7 7.7 0 1 0 -15.4 0zM539.79 571.55 a7.7 7.7 0 1 0 15.4 0 a7.7 7.7 0 1 0 -15.4 0zM539.79 648.55 a7.7 7.7 0 1 0 15.4 0 a7.7 7.7 0 1 0 -15.4 0zM473.1 687.05 a7.7 7.7 0 1 0 15.4 0 a7.7 7.7 0 1 0 -15.4 0zM539.79 186.55 a7.7 7.7 0 1 0 15.4 0 a7.7 7.7 0 1 0 -15.4 0zM606.47 225.05 a7.7 7.7 0 1 0 15.4 0 a7.7 7.7 0 1 0 -15.4 0zM606.47 302.05 a7.7 7.7 0 1 0 15.4 0 a7.7 7.7 0 1 0 -15.4 0zM539.79 340.55 a7.7 7.7 0 1 0 15.4 0 a7.7 7.7 0 1 0 -15.4 0zM739.84 302.05 a7.7 7.7 0 1 0 15.4 0 a7.7 7.7 0 1 0 -15.4 0zM806.53 340.55 a7.7 7.7 0 1 0 15.4 0 a7.7 7.7 0 1 0 -15.4 0zM806.53 417.55 a7.7 7.7 0 1 0 15.4 0 a7.7 7.7 0 1 0 -15.4 0zM739.84 456.05 a7.7 7.7 0 1 0 15.4 0 a7.7 7.7 0 1 0 -15.4 0zM673.16 417.55 a7.7 7.7 0 1 0 15.4 0 a7.7 7.7 0 1 0 -15.4 0zM673.16 340.55 a7.7 7.7 0 1 0 15.4 0 a7.7 7.7 0 1 0 -15.4 0zM806.53 -44.45 a7.7 7.7 0 1 0 15.4 0 a7.7 7.7 0 1 0 -15.4 0zM873.22 -5.95 a7.7 7.7 0 1 0 15.4 0 a7.7 7.7 0 1 0 -15.4 0zM873.22 71.05 a7.7 7.7 0 1 0 15.4 0 a7.7 7.7 0 1 0 -15.4 0zM806.53 109.55 a7.7 7.7 0 1 0 15.4 0 a7.7 7.7 0 1 0 -15.4 0zM739.84 71.05 a7.7 7.7 0 1 0 15.4 0 a7.7 7.7 0 1 0 -15.4 0zM739.84 -5.95 a7.7 7.7 0 1 0 15.4 0 a7.7 7.7 0 1 0 -15.4 0zM939.9 109.55 a7.7 7.7 0 1 0 15.4 0 a7.7 7.7 0 1 0 -15.4 0zM939.9 186.55 a7.7 7.7 0 1 0 15.4 0 a7.7 7.7 0 1 0 -15.4 0zM873.22 225.05 a7.7 7.7 0 1 0 15.4 0 a7.7 7.7 0 1 0 -15.4 0zM806.53 186.55 a7.7 7.7 0 1 0 15.4 0 a7.7 7.7 0 1 0 -15.4 0zM1006.59 71.05 a7.7 7.7 0 1 0 15.4 0 a7.7 7.7 0 1 0 -15.4 0zM1073.27 109.55 a7.7 7.7 0 1 0 15.4 0 a7.7 7.7 0 1 0 -15.4 0zM1073.27 186.55 a7.7 7.7 0 1 0 15.4 0 a7.7 7.7 0 1 0 -15.4 0zM1006.59 225.05 a7.7 7.7 0 1 0 15.4 0 a7.7 7.7 0 1 0 -15.4 0zM1006.59 533.05 a7.7 7.7 0 1 0 15.4 0 a7.7 7.7 0 1 0 -15.4 0zM1073.27 571.55 a7.7 7.7 0 1 0 15.4 0 a7.7 7.7 0 1 0 -15.4 0zM1073.27 648.55 a7.7 7.7 0 1 0 15.4 0 a7.7 7.7 0 1 0 -15.4 0zM1006.59 687.05 a7.7 7.7 0 1 0 15.4 0 a7.7 7.7 0 1 0 -15.4 0zM939.9 648.55 a7.7 7.7 0 1 0 15.4 0 a7.7 7.7 0 1 0 -15.4 0zM939.9 571.55 a7.7 7.7 0 1 0 15.4 0 a7.7 7.7 0 1 0 -15.4 0zM1073.27 -44.45 a7.7 7.7 0 1 0 15.4 0 a7.7 7.7 0 1 0 -15.4 0zM1139.96 -5.95 a7.7 7.7 0 1 0 15.4 0 a7.7 7.7 0 1 0 -15.4 0zM1139.96 71.05 a7.7 7.7 0 1 0 15.4 0 a7.7 7.7 0 1 0 -15.4 0zM1006.59 -5.95 a7.7 7.7 0 1 0 15.4 0 a7.7 7.7 0 1 0 -15.4 0zM1206.65 109.55 a7.7 7.7 0 1 0 15.4 0 a7.7 7.7 0 1 0 -15.4 0zM1206.65 186.55 a7.7 7.7 0 1 0 15.4 0 a7.7 7.7 0 1 0 -15.4 0zM1139.96 225.05 a7.7 7.7 0 1 0 15.4 0 a7.7 7.7 0 1 0 -15.4 0zM1139.96 302.05 a7.7 7.7 0 1 0 15.4 0 a7.7 7.7 0 1 0 -15.4 0zM1073.27 340.55 a7.7 7.7 0 1 0 15.4 0 a7.7 7.7 0 1 0 -15.4 0zM1006.59 302.05 a7.7 7.7 0 1 0 15.4 0 a7.7 7.7 0 1 0 -15.4 0zM1206.65 -44.45 a7.7 7.7 0 1 0 15.4 0 a7.7 7.7 0 1 0 -15.4 0zM1273.33 -5.95 a7.7 7.7 0 1 0 15.4 0 a7.7 7.7 0 1 0 -15.4 0zM1273.33 71.05 a7.7 7.7 0 1 0 15.4 0 a7.7 7.7 0 1 0 -15.4 0zM1340.02 109.55 a7.7 7.7 0 1 0 15.4 0 a7.7 7.7 0 1 0 -15.4 0zM1340.02 186.55 a7.7 7.7 0 1 0 15.4 0 a7.7 7.7 0 1 0 -15.4 0zM1273.33 225.05 a7.7 7.7 0 1 0 15.4 0 a7.7 7.7 0 1 0 -15.4 0zM1273.33 302.05 a7.7 7.7 0 1 0 15.4 0 a7.7 7.7 0 1 0 -15.4 0zM1340.02 340.55 a7.7 7.7 0 1 0 15.4 0 a7.7 7.7 0 1 0 -15.4 0zM1340.02 417.55 a7.7 7.7 0 1 0 15.4 0 a7.7 7.7 0 1 0 -15.4 0zM1273.33 456.05 a7.7 7.7 0 1 0 15.4 0 a7.7 7.7 0 1 0 -15.4 0zM1206.65 417.55 a7.7 7.7 0 1 0 15.4 0 a7.7 7.7 0 1 0 -15.4 0zM1206.65 340.55 a7.7 7.7 0 1 0 15.4 0 a7.7 7.7 0 1 0 -15.4 0zM1340.02 -44.45 a7.7 7.7 0 1 0 15.4 0 a7.7 7.7 0 1 0 -15.4 0zM1406.7 -5.95 a7.7 7.7 0 1 0 15.4 0 a7.7 7.7 0 1 0 -15.4 0zM1406.7 71.05 a7.7 7.7 0 1 0 15.4 0 a7.7 7.7 0 1 0 -15.4 0zM1473.39 109.55 a7.7 7.7 0 1 0 15.4 0 a7.7 7.7 0 1 0 -15.4 0zM1473.39 186.55 a7.7 7.7 0 1 0 15.4 0 a7.7 7.7 0 1 0 -15.4 0zM1406.7 225.05 a7.7 7.7 0 1 0 15.4 0 a7.7 7.7 0 1 0 -15.4 0zM1406.7 302.05 a7.7 7.7 0 1 0 15.4 0 a7.7 7.7 0 1 0 -15.4 0zM1473.39 340.55 a7.7 7.7 0 1 0 15.4 0 a7.7 7.7 0 1 0 -15.4 0zM1473.39 417.55 a7.7 7.7 0 1 0 15.4 0 a7.7 7.7 0 1 0 -15.4 0zM1406.7 456.05 a7.7 7.7 0 1 0 15.4 0 a7.7 7.7 0 1 0 -15.4 0zM1406.7 533.05 a7.7 7.7 0 1 0 15.4 0 a7.7 7.7 0 1 0 -15.4 0zM1473.39 571.55 a7.7 7.7 0 1 0 15.4 0 a7.7 7.7 0 1 0 -15.4 0zM1473.39 648.55 a7.7 7.7 0 1 0 15.4 0 a7.7 7.7 0 1 0 -15.4 0zM1406.7 687.05 a7.7 7.7 0 1 0 15.4 0 a7.7 7.7 0 1 0 -15.4 0zM1340.02 648.55 a7.7 7.7 0 1 0 15.4 0 a7.7 7.7 0 1 0 -15.4 0zM1340.02 571.55 a7.7 7.7 0 1 0 15.4 0 a7.7 7.7 0 1 0 -15.4 0z" fill="rgba(239, 149, 8, 1)"></path><path d="M117.48 268.79L160.78 293.79L160.78 343.79L117.48 368.79L74.17 343.79L74.17 293.79zM117.48 418.79L160.78 443.79L160.78 493.79L117.48 518.79L74.17 493.79L74.17 443.79zM160.78 493.79L204.08 518.79L204.08 568.79L160.78 593.79L117.48 568.79L117.48 518.79zM204.08 268.79L247.38 293.79L247.38 343.79L204.08 368.79L160.78 343.79L160.78 293.79zM333.99 193.79L377.29 218.79L377.29 268.79L333.99 293.79L290.69 268.79L290.69 218.79zM377.29 -31.21L420.59 -6.21L420.59 43.79L377.29 68.79L333.99 43.79L333.99 -6.21zM420.59 43.79L463.9 68.79L463.9 118.79L420.59 143.79L377.29 118.79L377.29 68.79zM463.9 118.79L507.2 143.79L507.2 193.79L463.9 218.79L420.59 193.79L420.59 143.79zM593.8 193.79L637.11 218.79L637.11 268.79L593.8 293.79L550.5 268.79L550.5 218.79zM637.11 118.79L680.41 143.79L680.41 193.79L637.11 218.79L593.8 193.79L593.8 143.79zM637.11 418.79L680.41 443.79L680.41 493.79L637.11 518.79L593.8 493.79L593.8 443.79zM723.71 418.79L767.01 443.79L767.01 493.79L723.71 518.79L680.41 493.79L680.41 443.79zM853.62 493.79L896.92 518.79L896.92 568.79L853.62 593.79L810.32 568.79L810.32 518.79zM896.92 -31.21L940.22 -6.21L940.22 43.79L896.92 68.79L853.62 43.79L853.62 -6.21zM940.22 43.79L983.53 68.79L983.53 118.79L940.22 143.79L896.92 118.79L896.92 68.79zM896.92 268.79L940.22 293.79L940.22 343.79L896.92 368.79L853.62 343.79L853.62 293.79zM940.22 343.79L983.53 368.79L983.53 418.79L940.22 443.79L896.92 418.79L896.92 368.79zM983.53 -31.21L1026.83 -6.21L1026.83 43.79L983.53 68.79L940.22 43.79L940.22 -6.21zM1113.43 193.79L1156.73 218.79L1156.73 268.79L1113.43 293.79L1070.13 268.79L1070.13 218.79zM1156.73 -31.21L1200.04 -6.21L1200.04 43.79L1156.73 68.79L1113.43 43.79L1113.43 -6.21zM1200.04 193.79L1243.34 218.79L1243.34 268.79L1200.04 293.79L1156.73 268.79L1156.73 218.79zM1200.04 343.79L1243.34 368.79L1243.34 418.79L1200.04 443.79L1156.73 418.79L1156.73 368.79zM1286.64 43.79L1329.94 68.79L1329.94 118.79L1286.64 143.79L1243.34 118.79L1243.34 68.79zM1329.94 118.79L1373.25 143.79L1373.25 193.79L1329.94 218.79L1286.64 193.79L1286.64 143.79zM1373.25 343.79L1416.55 368.79L1416.55 418.79L1373.25 443.79L1329.94 418.79L1329.94 368.79zM1459.85 193.79L1503.15 218.79L1503.15 268.79L1459.85 293.79L1416.55 268.79L1416.55 218.79zM1416.55 268.79L1459.85 293.79L1459.85 343.79L1416.55 368.79L1373.25 343.79L1373.25 293.79zM1459.85 343.79L1503.15 368.79L1503.15 418.79L1459.85 443.79L1416.55 418.79L1416.55 368.79z" stroke="rgba(224, 227, 230, 0.93)" stroke-width="2"></path></g><defs><mask id="SvgjsMask1002"><rect width="1440" height="560" fill="#ffffff"></rect></mask></defs></svg>